Simulation
nRows=46
nColumns=15
endheader
time  TH_x TH_y TH_z SC_y  SC_z  SC_x  AC_y  AC_z  AC_x  GH_y  GH_z  GH_yy  EL_x  PS_y
0.0  0.000000  0.000000  0.000000  -45.322594574977394  7.321895392946768  15.921828233243529  58.49006574000066  6.265551920733644  7.531668869064269  65.8044534875532  52.31698089506363  -67.34507613281428  23.37417664084501  120.000000
0.04499999999999999  0.000000  0.000000  0.000000  -45.30305146856904  8.656600180577346  15.64226477967096  58.22670991481557  8.170292071173177  9.39790604094553  65.2813106882004  54.43412421097044  -67.51818057161863  23.646978866042474  120.000000
0.08999999999999998  0.000000  0.000000  0.000000  -45.2723932383635  9.64212360452373  14.926658722582594  57.92145686388631  9.669948529545232  10.92516157189989  64.9821182800822  55.93526814808763  -67.81385964725305  23.773111146565547  120.000000
0.13499999999999998  0.000000  0.000000  0.000000  -45.20416798349734  10.230582720336075  13.919223928951475  57.61034381088911  10.85963593673831  12.12046782954418  64.85636411629835  56.888643538781956  -68.18897659673323  23.810154750906346  120.000000
0.17999999999999997  0.000000  0.000000  0.000000  -45.095616299542655  10.490469378107237  12.73285434682238  57.35271825540932  11.846257785406365  12.966239793525293  64.86211346785655  57.38258267985524  -68.61073104247497  23.819576309768575  120.000000
0.22499999999999995  0.000000  0.000000  0.000000  -44.97103298621294  10.471344147546194  11.457197034739398  57.14746349944278  12.684886637680494  13.526054209570209  64.97303074392912  57.50518009019058  -69.06320454682077  23.845045092723474  120.000000
0.26999999999999996  0.000000  0.000000  0.000000  -44.845608963181  10.239481486780301  10.154591857913202  56.98570383844813  13.417892867144111  13.861085405230043  65.14594154738715  57.34729462329954  -69.53507293776585  23.90801283099063  120.000000
0.31499999999999995  0.000000  0.000000  0.000000  -44.73146967031878  9.868876907215213  8.86445904251755  56.866476558914655  14.06621480567542  14.038198871005834  65.35319882301006  56.99407460413157  -70.01790418267923  24.0107932821924  120.000000
0.35999999999999993  0.000000  0.000000  0.000000  -44.62301106055484  9.413905125065318  7.604049934271002  56.78556643124059  14.63058859600324  14.123236836704798  65.57336138569345  56.51439383685346  -70.50327025098564  24.14536178109227  120.000000
0.4049999999999999  0.000000  0.000000  0.000000  -44.51090311918961  8.92739950679749  6.379507064478666  56.74613174044735  15.106554651110555  14.166972493978042  65.79535400663868  55.96039009679714  -70.97795599374805  24.296432549335258  120.000000
0.4499999999999999  0.000000  0.000000  0.000000  -44.37998395574527  8.443738614197626  5.188763918684252  56.74765780428451  15.483561236385308  14.211412615591708  66.01722282493054  55.36449624125343  -71.42547176574767  24.452487955495556  120.000000
0.4949999999999999  0.000000  0.000000  0.000000  -44.21738645434834  7.988231760583356  4.027731340062787  56.790306441116684  15.75408290477433  14.284233109140885  66.24452296860996  54.74392183970987  -71.82707201384052  24.604635854893665  120.000000
0.5399999999999999  0.000000  0.000000  0.000000  -44.012853499551724  7.5745854966570825  2.8917792094855064  56.87123489620876  15.913535406230547  14.402961921858576  66.48810479055706  54.10383414026672  -72.16450757606299  24.75327667008813  120.000000
0.5849999999999999  0.000000  0.000000  0.000000  -43.762199226884626  7.207956501146091  1.7785304829789064  56.98720744928903  15.962352574066898  14.575961965331054  66.7626181348261  53.44329361959106  -72.42290754768905  24.90332434443613  120.000000
0.6299999999999999  0.000000  0.000000  0.000000  -43.465891345933564  6.887604804283797  0.6879007138935661  57.1340321112251  15.90491778022512  14.804830404790772  67.08344699650787  52.759439936520614  -72.59261943713626  25.065810715649004  120.000000
0.6749999999999998  0.000000  0.000000  0.000000  -43.13026260566828  6.608361428501689  -0.3765353178760161  57.30837342741052  15.74956258973723  15.086060449622254  67.46501234143156  52.05168970776155  -72.67051497510066  25.250820106471668  120.000000
0.7199999999999999  0.000000  0.000000  0.000000  -42.76548418982117  6.363437738463908  -1.4082281937259897  57.507299040533574  15.507229614080318  15.412430698270693  67.91798390204983  51.32380711666537  -72.6599175204429  25.467105474005443  120.000000
0.7649999999999999  0.000000  0.000000  0.000000  -42.3859778764463  6.144700603849046  -2.3972078264208996  57.729007316934585  15.191516725098436  15.77409263398808  68.4481928155027  50.58510330017179  -72.569969141746  25.71647244110282  120.000000
0.8099999999999998  0.000000  0.000000  0.000000  -42.00802651750527  5.945037345438299  -3.3314070087213907  57.9719192109842  14.81772485025975  16.15929181211814  69.05482244807082  49.84988357835831  -72.4139676215664  25.995466890465924  120.000000
0.8549999999999999  0.000000  0.000000  0.000000  -41.64939423214284  5.757996602640986  -4.197177914253764  58.2344307068904  14.403044074429095  16.555166060916804  69.73021277095678  49.1361805829979  -72.20764694868808  26.29396760118691  120.000000
0.8999999999999998  0.000000  0.000000  0.000000  -41.326761757484746  5.578999894968206  -4.981178744261136  58.51310606160464  13.964983658416283  16.949179113064908  70.46003107659469  48.46306882428528  -71.96736585064171  26.5997757821102  120.000000
0.9449999999999998  0.000000  0.000000  0.000000  -41.05391855836202  5.404781507964799  -5.671837025169392  58.80390552077294  13.521182298310228  17.329387261749854  71.22548750698668  47.848725633661935  -71.70922377713751  26.899954664045513  120.000000
0.9899999999999998  0.000000  0.000000  0.000000  -40.83867416400848  5.234152914510439  -6.261147723514717  59.10209180060191  13.087886362704756  17.684944287271712  72.00437053897595  47.308238025656166  -71.44812261102409  27.185338311599775  120.000000
1.0349999999999997  0.000000  0.000000  0.000000  -40.684021197304915  5.068534410600959  -6.744752324453451  59.40166372773658  12.680381673169183  18.006310251216544  72.77102803739999  46.85193287133984  -71.19601021762152  27.45041255180978  120.000000
1.0799999999999998  0.000000  0.000000  0.000000  -40.58785086291654  4.911401388604176  -7.122964541259992  59.69409953687122  12.311095155030118  18.286986277726207  73.49782921578799  46.483581953414756  -70.9617503701498  27.694880200818833  120.000000
1.1249999999999998  0.000000  0.000000  0.000000  -40.543620715209165  4.766712159006555  -7.401207218760541  59.9702944263455  11.989462427826266  18.52331907330037  74.15795519349106  46.200382735596776  -70.75169411736137  27.921675194674066  120.000000
1.1699999999999997  0.000000  0.000000  0.000000  -40.541554719293124  4.639344305245156  -7.5905205949145245  60.2215151833492  11.72059962563806  18.71489723191958  74.72833697463052  45.993469239703764  -70.5711923077453  28.137154753333657  120.000000
1.2149999999999999  0.000000  0.000000  0.000000  -40.56944038876627  4.532830878819912  -7.706336278149112  60.44101575526754  11.506129040196603  18.86358410040668  75.1912211124961  45.84923746440069  -70.42518594690061  28.348378545593736  120.000000
1.2599999999999998  0.000000  0.000000  0.000000  -40.61394763380087  4.449430820486832  -7.766781561728001  60.62319780738106  11.34466318642675  18.973571637245655  75.53476649558247  45.751051997499744  -70.31866690981184  28.56230199852658  120.000000
1.3049999999999997  0.000000  0.000000  0.000000  -40.66206361991073  4.389425336027161  -7.790305836394903  60.76357931384102  11.234087464601291  19.049962590691703  75.7522982596159  45.68190518358387  -70.25581672004428  28.782535855160624  120.000000
1.3499999999999996  0.000000  0.000000  0.000000  -40.70194808248351  4.3519130400060995  -7.79426693382418  60.85787828187627  11.172402140866495  19.097707832857733  75.84206998868608  45.6276052014006  -70.2399706337114  29.007339804222944  120.000000
1.3949999999999998  0.000000  0.000000  0.000000  -40.72461012698757  4.335741356387852  -7.792583673744939  60.902030728534484  11.159738216380045  19.119924068113555  75.80640075204293  45.57990706846074  -70.27224517083027  29.225375205320976  120.000000
1.4399999999999997  0.000000  0.000000  0.000000  -40.725161473008086  4.34093493059604  -7.793882324789455  60.891043514647635  11.199191664880018  19.11753279380263  75.6511238392482  45.53862488566444  -70.35063065258981  29.413275149406616  120.000000
1.4849999999999997  0.000000  0.000000  0.000000  -40.70404493854098  4.36958926878445  -7.799279299636303  60.81967484763617  11.297986962945236  19.088949026515778  75.38476560999878  45.51239382769897  -70.46830818833375  29.534001659584376  120.000000
1.5299999999999998  0.000000  0.000000  0.000000  -40.66686453374181  4.425900742086708  -7.80220660606655  60.683039196043495  11.46618837336768  19.030867457438088  75.01826289840831  45.51787004706828  -70.61349081299115  29.540570472630765  120.000000
1.5749999999999997  0.000000  0.000000  0.000000  -40.624075727721454  4.515186854064676  -7.788880900018774  60.47854052184457  11.714797376172987  18.93940664880472  74.56461039571751  45.576928474687215  -70.7694078997409  29.383269370390607  120.000000
1.6199999999999997  0.000000  0.000000  0.000000  -40.59007618975928  4.642267947971499  -7.74052808768605  60.206560434769756  12.051987508181146  18.812189098376304  74.03904461985407  45.712372730828406  -70.91585839867935  29.021549950242377  120.000000
1.6649999999999996  0.000000  0.000000  0.000000  -40.58178319703467  4.8098922737737055  -7.635431217765795  59.87217953472613  12.480422837672167  18.64985696597163  73.45943028091027  45.94285691168927  -71.03065886662012  28.435344666596176  120.000000
1.7099999999999997  0.000000  0.000000  0.000000  -40.61583229961788  5.017432962512424  -7.452016966325714  59.486516536235555  12.994636737430891  18.456717985722623  72.84706165790634  46.27887635228909  -71.09234762320622  27.634059689714096  120.000000
1.7549999999999997  0.000000  0.000000  0.000000  -40.70567732409742  5.260590634818778  -7.1709061244300285  59.06758208287294  13.580683100424775  18.2401778820366  72.22579968466893  46.72031395779268  -71.08198017611575  26.658135433698924  120.000000
1.7999999999999996  0.000000  0.000000  0.000000  -40.859800322564396  5.532002029388746  -6.777258716929361  58.63744064894634  14.21654854400501  18.010425264857453  71.61948827491241  47.25620919156212  -70.9851753387654  25.57394958833473  120.000000
1.8449999999999998  0.000000  0.000000  0.000000  -41.08061436236499  5.822865687167275  -6.262815764629297  58.21937381804842  14.875020608947876  17.778787238316628  71.04822352319283  47.86659757249043  -70.7934232926236  24.4623910194479  120.000000
1.8899999999999997  0.000000  0.000000  0.000000  -41.36388481062774  6.125058746495135  -5.628718362441302  57.83591037559762  15.526058344583891  17.55547900462221  70.52682691176828  48.52656710945261  -70.50681248391494  23.406239796277074  120.000000
1.9349999999999996  0.000000  0.000000  0.000000  -41.69793222526227  6.4300480024343045  -4.887458651157442  57.50706910641853  16.13924984217409  17.348232165932952  70.0652991659506  49.20946397919823  -70.13615182060234  22.4782038459978  120.000000
1.9799999999999995  0.000000  0.000000  0.000000  -42.06568477618491  6.72871575338049  -4.063490680498925  57.24659136343199  16.686096109046538  17.162574020212727  69.66916882563221  49.88928069878707  -69.70316250720896  21.733358444301658  120.000000
2.0249999999999995  0.000000  0.000000  0.000000  -42.44703977432202  7.011766557055293  -3.1918282224915253  57.060587199068856  17.14338954950464  17.001307127497743  69.33882369964519  50.54271473379422  -69.23767368787752  21.20553326617252  120.000000
